<mxfile host="Electron" agent="Mozilla/5.0 (Windows NT 10.0; Win64; x64) AppleWebKit/537.36 (KHTML, like Gecko) draw.io/27.0.9 Chrome/134.0.6998.205 Electron/35.4.0 Safari/537.36" version="27.0.9">
  <diagram name="Page-1" id="iZSY6uQsNrNsIHe_nBcT">
    <mxGraphModel dx="1028" dy="595" grid="1" gridSize="10" guides="1" tooltips="1" connect="1" arrows="1" fold="1" page="1" pageScale="1" pageWidth="850" pageHeight="1100" math="0" shadow="0">
      <root>
        <mxCell id="0" />
        <mxCell id="1" parent="0" />
        <mxCell id="yPfur1NefrofBJ2phnWL-1" value="" style="endArrow=none;html=1;rounded=0;" edge="1" parent="1">
          <mxGeometry width="50" height="50" relative="1" as="geometry">
            <mxPoint x="35" y="400" as="sourcePoint" />
            <mxPoint x="795" y="400" as="targetPoint" />
          </mxGeometry>
        </mxCell>
        <mxCell id="yPfur1NefrofBJ2phnWL-2" value="" style="endArrow=classic;html=1;rounded=0;" edge="1" parent="1">
          <mxGeometry width="50" height="50" relative="1" as="geometry">
            <mxPoint x="75" y="460" as="sourcePoint" />
            <mxPoint x="75" y="410" as="targetPoint" />
          </mxGeometry>
        </mxCell>
        <mxCell id="yPfur1NefrofBJ2phnWL-3" value="C&lt;sub&gt;x&lt;/sub&gt;" style="edgeLabel;html=1;align=center;verticalAlign=middle;resizable=0;points=[];" vertex="1" connectable="0" parent="yPfur1NefrofBJ2phnWL-2">
          <mxGeometry x="-0.4625" relative="1" as="geometry">
            <mxPoint y="21" as="offset" />
          </mxGeometry>
        </mxCell>
        <mxCell id="yPfur1NefrofBJ2phnWL-4" value="" style="endArrow=classic;html=1;rounded=0;" edge="1" parent="1">
          <mxGeometry width="50" height="50" relative="1" as="geometry">
            <mxPoint x="10" y="395" as="sourcePoint" />
            <mxPoint x="70" y="395" as="targetPoint" />
          </mxGeometry>
        </mxCell>
        <mxCell id="yPfur1NefrofBJ2phnWL-5" value="C&lt;sub&gt;y&lt;/sub&gt;" style="edgeLabel;html=1;align=center;verticalAlign=middle;resizable=0;points=[];" vertex="1" connectable="0" parent="yPfur1NefrofBJ2phnWL-4">
          <mxGeometry x="-0.8067" y="1" relative="1" as="geometry">
            <mxPoint as="offset" />
          </mxGeometry>
        </mxCell>
        <mxCell id="yPfur1NefrofBJ2phnWL-6" value="" style="verticalLabelPosition=bottom;verticalAlign=top;html=1;shape=mxgraph.flowchart.on-page_reference;" vertex="1" parent="1">
          <mxGeometry x="65" y="370" width="20" height="20" as="geometry" />
        </mxCell>
        <mxCell id="yPfur1NefrofBJ2phnWL-7" value="" style="ellipse;whiteSpace=wrap;html=1;aspect=fixed;fontColor=#000000;" vertex="1" parent="1">
          <mxGeometry x="70" y="375" width="10" height="10" as="geometry" />
        </mxCell>
        <mxCell id="yPfur1NefrofBJ2phnWL-8" value="C&lt;sub&gt;z&lt;/sub&gt;" style="text;html=1;align=center;verticalAlign=middle;resizable=0;points=[];autosize=1;strokeColor=none;fillColor=none;" vertex="1" parent="1">
          <mxGeometry x="70" y="355" width="40" height="30" as="geometry" />
        </mxCell>
        <mxCell id="yPfur1NefrofBJ2phnWL-9" value="" style="endArrow=classic;html=1;rounded=0;" edge="1" parent="1">
          <mxGeometry width="50" height="50" relative="1" as="geometry">
            <mxPoint x="275" y="340" as="sourcePoint" />
            <mxPoint x="275" y="390" as="targetPoint" />
          </mxGeometry>
        </mxCell>
        <mxCell id="yPfur1NefrofBJ2phnWL-10" value="W&lt;sub&gt;3r&lt;/sub&gt;" style="edgeLabel;html=1;align=center;verticalAlign=middle;resizable=0;points=[];" vertex="1" connectable="0" parent="yPfur1NefrofBJ2phnWL-9">
          <mxGeometry x="-0.4625" relative="1" as="geometry">
            <mxPoint y="-16" as="offset" />
          </mxGeometry>
        </mxCell>
        <mxCell id="yPfur1NefrofBJ2phnWL-11" value="" style="endArrow=classic;html=1;rounded=0;" edge="1" parent="1">
          <mxGeometry width="50" height="50" relative="1" as="geometry">
            <mxPoint x="325" y="390" as="sourcePoint" />
            <mxPoint x="275" y="390" as="targetPoint" />
          </mxGeometry>
        </mxCell>
        <mxCell id="yPfur1NefrofBJ2phnWL-12" value="W&lt;sub&gt;3a&lt;/sub&gt;" style="edgeLabel;html=1;align=center;verticalAlign=middle;resizable=0;points=[];" vertex="1" connectable="0" parent="yPfur1NefrofBJ2phnWL-11">
          <mxGeometry x="-0.4625" relative="1" as="geometry">
            <mxPoint x="14" y="-10" as="offset" />
          </mxGeometry>
        </mxCell>
        <mxCell id="yPfur1NefrofBJ2phnWL-13" value="" style="shape=sumEllipse;perimeter=ellipsePerimeter;whiteSpace=wrap;html=1;backgroundOutline=1;" vertex="1" parent="1">
          <mxGeometry x="245" y="375" width="20" height="20" as="geometry" />
        </mxCell>
        <mxCell id="yPfur1NefrofBJ2phnWL-14" value="W&lt;span style=&quot;font-size: 10px;&quot;&gt;&lt;sub&gt;3t&lt;/sub&gt;&lt;/span&gt;" style="text;html=1;align=center;verticalAlign=middle;resizable=0;points=[];autosize=1;strokeColor=none;fillColor=none;" vertex="1" parent="1">
          <mxGeometry x="215" y="355" width="40" height="30" as="geometry" />
        </mxCell>
        <mxCell id="yPfur1NefrofBJ2phnWL-15" value="30 mm" style="text;html=1;align=center;verticalAlign=middle;resizable=0;points=[];autosize=1;strokeColor=none;fillColor=none;" vertex="1" parent="1">
          <mxGeometry x="135" y="395" width="60" height="30" as="geometry" />
        </mxCell>
        <mxCell id="yPfur1NefrofBJ2phnWL-16" value="10 mm" style="text;html=1;align=center;verticalAlign=middle;resizable=0;points=[];autosize=1;strokeColor=none;fillColor=none;" vertex="1" parent="1">
          <mxGeometry x="25" y="395" width="60" height="30" as="geometry" />
        </mxCell>
        <mxCell id="yPfur1NefrofBJ2phnWL-17" value="30 mm" style="text;html=1;align=center;verticalAlign=middle;resizable=0;points=[];autosize=1;strokeColor=none;fillColor=none;" vertex="1" parent="1">
          <mxGeometry x="345" y="398" width="60" height="30" as="geometry" />
        </mxCell>
        <mxCell id="yPfur1NefrofBJ2phnWL-18" value="" style="endArrow=classic;html=1;rounded=0;" edge="1" parent="1">
          <mxGeometry width="50" height="50" relative="1" as="geometry">
            <mxPoint x="475" y="450" as="sourcePoint" />
            <mxPoint x="475" y="410" as="targetPoint" />
          </mxGeometry>
        </mxCell>
        <mxCell id="yPfur1NefrofBJ2phnWL-19" value="D&lt;sub&gt;x&lt;/sub&gt;" style="edgeLabel;html=1;align=center;verticalAlign=middle;resizable=0;points=[];" vertex="1" connectable="0" parent="yPfur1NefrofBJ2phnWL-18">
          <mxGeometry x="-0.4625" relative="1" as="geometry">
            <mxPoint y="11" as="offset" />
          </mxGeometry>
        </mxCell>
        <mxCell id="yPfur1NefrofBJ2phnWL-20" value="" style="verticalLabelPosition=bottom;verticalAlign=top;html=1;shape=mxgraph.flowchart.on-page_reference;" vertex="1" parent="1">
          <mxGeometry x="465" y="375" width="20" height="20" as="geometry" />
        </mxCell>
        <mxCell id="yPfur1NefrofBJ2phnWL-21" value="" style="ellipse;whiteSpace=wrap;html=1;aspect=fixed;fontColor=#000000;" vertex="1" parent="1">
          <mxGeometry x="470" y="380" width="10" height="10" as="geometry" />
        </mxCell>
        <mxCell id="yPfur1NefrofBJ2phnWL-22" value="D&lt;sub&gt;z&lt;/sub&gt;" style="text;html=1;align=center;verticalAlign=middle;resizable=0;points=[];autosize=1;strokeColor=none;fillColor=none;" vertex="1" parent="1">
          <mxGeometry x="470" y="360" width="40" height="30" as="geometry" />
        </mxCell>
        <mxCell id="yPfur1NefrofBJ2phnWL-23" value="35 mm" style="text;html=1;align=center;verticalAlign=middle;resizable=0;points=[];autosize=1;strokeColor=none;fillColor=none;" vertex="1" parent="1">
          <mxGeometry x="565" y="398" width="60" height="30" as="geometry" />
        </mxCell>
        <mxCell id="yPfur1NefrofBJ2phnWL-24" value="15 mm" style="text;html=1;align=center;verticalAlign=middle;resizable=0;points=[];autosize=1;strokeColor=none;fillColor=none;" vertex="1" parent="1">
          <mxGeometry x="725" y="395" width="60" height="30" as="geometry" />
        </mxCell>
        <mxCell id="yPfur1NefrofBJ2phnWL-25" value="" style="endArrow=none;html=1;rounded=0;" edge="1" parent="1">
          <mxGeometry width="50" height="50" relative="1" as="geometry">
            <mxPoint x="715" y="400" as="sourcePoint" />
            <mxPoint x="715" y="240" as="targetPoint" />
          </mxGeometry>
        </mxCell>
        <mxCell id="yPfur1NefrofBJ2phnWL-26" value="" style="verticalLabelPosition=bottom;verticalAlign=top;html=1;shape=mxgraph.flowchart.on-page_reference;" vertex="1" parent="1">
          <mxGeometry x="685" y="225" width="20" height="20" as="geometry" />
        </mxCell>
        <mxCell id="yPfur1NefrofBJ2phnWL-27" value="" style="ellipse;whiteSpace=wrap;html=1;aspect=fixed;fontColor=#000000;" vertex="1" parent="1">
          <mxGeometry x="690" y="230" width="10" height="10" as="geometry" />
        </mxCell>
        <mxCell id="yPfur1NefrofBJ2phnWL-28" value="W&lt;sub&gt;4t&lt;/sub&gt;" style="text;html=1;align=center;verticalAlign=middle;resizable=0;points=[];autosize=1;strokeColor=none;fillColor=none;" vertex="1" parent="1">
          <mxGeometry x="660" y="240" width="40" height="30" as="geometry" />
        </mxCell>
        <mxCell id="yPfur1NefrofBJ2phnWL-31" value="" style="endArrow=classic;html=1;rounded=0;" edge="1" parent="1">
          <mxGeometry width="50" height="50" relative="1" as="geometry">
            <mxPoint x="715" y="180" as="sourcePoint" />
            <mxPoint x="715" y="240" as="targetPoint" />
          </mxGeometry>
        </mxCell>
        <mxCell id="yPfur1NefrofBJ2phnWL-32" value="W&lt;sub&gt;4r&lt;/sub&gt;" style="edgeLabel;html=1;align=center;verticalAlign=middle;resizable=0;points=[];" vertex="1" connectable="0" parent="yPfur1NefrofBJ2phnWL-31">
          <mxGeometry x="-0.6027" y="1" relative="1" as="geometry">
            <mxPoint y="-10" as="offset" />
          </mxGeometry>
        </mxCell>
        <mxCell id="yPfur1NefrofBJ2phnWL-33" value="" style="endArrow=classic;html=1;rounded=0;" edge="1" parent="1">
          <mxGeometry width="50" height="50" relative="1" as="geometry">
            <mxPoint x="785" y="240" as="sourcePoint" />
            <mxPoint x="715" y="240" as="targetPoint" />
          </mxGeometry>
        </mxCell>
        <mxCell id="yPfur1NefrofBJ2phnWL-34" value="W&lt;sub&gt;4a&lt;/sub&gt;" style="edgeLabel;html=1;align=center;verticalAlign=middle;resizable=0;points=[];" vertex="1" connectable="0" parent="yPfur1NefrofBJ2phnWL-33">
          <mxGeometry x="-0.6027" y="1" relative="1" as="geometry">
            <mxPoint y="-10" as="offset" />
          </mxGeometry>
        </mxCell>
        <mxCell id="yPfur1NefrofBJ2phnWL-35" value="33.06 mm" style="text;html=1;align=center;verticalAlign=middle;resizable=0;points=[];autosize=1;strokeColor=none;fillColor=none;" vertex="1" parent="1">
          <mxGeometry x="715" y="300" width="80" height="30" as="geometry" />
        </mxCell>
      </root>
    </mxGraphModel>
  </diagram>
</mxfile>
